<?xml version="1.0" encoding="utf-8"?>
<!-- Generator: Adobe Illustrator 26.0.3, SVG Export Plug-In . SVG Version: 6.00 Build 0)  -->
<svg version="1.1" id="Layer_1" xmlns="http://www.w3.org/2000/svg" xmlns:xlink="http://www.w3.org/1999/xlink" x="0px" y="0px"
	 viewBox="0 0 225 52" style="enable-background:new 0 0 225 52;" xml:space="preserve">
<style type="text/css">
	.st0{fill:#0F0C38;}
</style>
<path class="st0" d="M52.9,29c-1.5,0,1.6-4.1,0.5-5.6c-0.3-0.4-0.7-0.6-1.2-0.6c-1.7,0-3.2,0.6-4.3,1.7c0.2-0.4,0.4-0.8,0.5-1.2
	c0.7-1.8,1.1-5,1.2-7.1c1.6,3.2,4.8,5.8,5.6,7C56.4,25.5,54.3,29,52.9,29z M41.2,20.1c-0.3,1.7-2,6.6-4.7,6.6
	C32,26.7,37.6,20.1,41.2,20.1z M64.7,7.6c-0.9-4-8.7-5.4-13.9,0.3c-0.8,0.9-1.3,1.8-1.7,2.6c-1-3.2-3.4-6-7.9-6
	c-2.5,0-5,1.1-6.6,3.1C34,6.9,33,6.2,31.9,6.2c-3.1,0-5,3.9-6.8,9c-0.9,1.7-5,8.4-7.8,8.4c-1,0-2-0.7-2-2.2c0-5.2,2.8-8.2,2.8-10.7
	c0-2.9-5.5-4.6-5.5-2.3c0,3.1-5.8,10.6-5.8,17.7c0,3.3,2.6,7,6.4,7c2.7,0,5.5-2.7,7.7-5.8c-2.7,7.2-6.2,13.6-12.5,13.6
	c-4.3,0-4.3-4.6-4.3-5.3c0-0.7-3.1,1.6-3.1,6.1c0,4.4,3.7,9.7,9.1,9.7c5.8,0,11.2-3.5,14.1-11.2c3.4-8.8,4.5-20.4,8.6-28.1
	c0,0.1,0,0.3,0,0.4c0,1.5,2.4,2,3.2,0.1c0.4-1,2-2,2.8-2c1.2,0,2,0.5,2.3,1.8c0.2,1,0.2,2,0.2,3.1c0,0.6-0.1,0.6-0.6,0.6
	c-7,0-10.5,6.6-10.4,10.8c0.1,3.5,3.1,5.5,6.2,5.5c3.2,0,7.1-1.8,9.7-5.1c-0.3,0.9-0.5,2-0.5,3.1c0.3,5.1,6.1,6.5,10.6,5.5
	c4.4-1,8.5-5.6,8-10.8c-0.6-5.9-5.1-8-5.1-10.6c0-2.5,2.6-3.7,3.6-3.9C64.2,10.1,65,8.9,64.7,7.6z M80.8,8.2
	c0.1-3.2-4.2-3.5-6.3-3.5c-8.3-0.3-14.2,10.2-8.2,17.1c2.2,2.6,4.5,3.5,4.5,5.4c-0.1,1-1.6,2-2.4,0.1c-1.3-2.9-5.3,1.3-2.9,4.7
	c2.4,3.4,6,3.3,7.7,2.8c3.2-0.9,5.9-3.8,6-7.2c0.2-5.3-6-8-5.8-13C73.6,8.3,80.6,12.2,80.8,8.2z"/>
<path class="st0" d="M88.8,21.5c0.5-3.5,2.1-15.8,1-19.2c-0.3-0.9-0.9-1.5-1.9-1.8c-3.8-0.7-4.7,8.7-7.1,23.1
	c-0.5,3.3,2.6,5.7,5.2,4.7C88.7,27.4,88.4,24.9,88.8,21.5z"/>
<path class="st0" d="M83.6,37.9c2.2,0,3.8-1.7,3.7-3.9c-0.1-2.2-1.9-3.8-4-3.9c-2.2,0-3.8,1.7-3.7,3.9
	C79.6,36.3,81.4,37.9,83.6,37.9z"/>
</svg>
